<?xml version="1.0" encoding="utf-8"?>
<!-- Generator: Adobe Illustrator 27.5.0, SVG Export Plug-In . SVG Version: 6.00 Build 0)  -->
<svg version="1.1" id="Capa_1" xmlns="http://www.w3.org/2000/svg" xmlns:xlink="http://www.w3.org/1999/xlink" x="0px" y="0px"
	 viewBox="0 0 1811 2486" style="enable-background:new 0 0 1811 2486;" xml:space="preserve">
<path style="fill:#C5AEA6;" d="M1310.434,2100.947l-90.005-186.058c23.287-10.831,39.883-25.575,49.391-39.191
	c18.186-26.046-32.643-162.996-66.9-203.291c-9.313-10.956-26.501-15.276-47.354-15.175h0.004c3.189-1.969,6.315-3.905,9.325-5.775
	c27.635-17.164,36.233-57.073,9.521-61.984c-7.98-1.467-17.858-5.023-28.987-8.669c0.013,0.004,0.024,0.008,0.037,0.012
	c12.278-13.419,17.668-25.952,13.8-35.614c-5.02-12.541-24.637-17.843-52.2-16.272c2.413-1.547,4.73-2.994,7.193-4.591
	c0.485-0.548,0.901-1.076,1.342-1.611c-0.777,0.99-1.342,1.611-1.342,1.611s13.683-11.109,23.938-24.732
	c-0.001,0.008-0.001,0.015-0.004,0.022c0.107-0.141,0.208-0.284,0.313-0.426c0.237-0.318,0.47-0.636,0.702-0.956
	c0.622-0.856,1.233-1.718,1.821-2.59c0.157-0.233,0.303-0.468,0.457-0.702c0.5-0.758,0.981-1.52,1.447-2.286
	c0.162-0.267,0.329-0.532,0.487-0.8c0.532-0.904,1.032-1.81,1.507-2.719c0.145-0.278,0.285-0.556,0.425-0.834
	c0.469-0.939,0.917-1.879,1.314-2.818c0.07-0.166,0.128-0.331,0.197-0.497c0.35-0.859,0.664-1.716,0.944-2.571
	c0.071-0.218,0.149-0.435,0.216-0.652c0.286-0.938,0.52-1.869,0.708-2.794c0.048-0.233,0.09-0.465,0.131-0.697
	c0.168-0.946,0.297-1.887,0.35-2.814c0.005-0.113,0-0.222,0.004-0.334c0.036-0.87,0.01-1.729-0.067-2.576
	c-0.016-0.18-0.024-0.362-0.046-0.542c-0.108-0.893-0.287-1.769-0.534-2.631c-0.054-0.187-0.115-0.37-0.176-0.555
	c-0.286-0.88-0.626-1.747-1.071-2.588c-0.034-0.063-0.078-0.123-0.113-0.186c-0.438-0.801-0.969-1.579-1.565-2.339
	c-0.115-0.146-0.222-0.296-0.343-0.441c-0.642-0.769-1.378-1.512-2.198-2.23c-0.168-0.147-0.347-0.29-0.522-0.435
	c-0.884-0.73-1.839-1.44-2.927-2.111c-0.05-0.031-0.108-0.059-0.16-0.089c-1.065-0.648-2.256-1.259-3.526-1.845
	c-0.238-0.11-0.465-0.222-0.71-0.33c-1.313-0.575-2.737-1.115-4.266-1.621c-0.297-0.098-0.611-0.192-0.918-0.288
	c-1.627-0.509-3.339-0.991-5.212-1.419c-0.04-0.009-0.087-0.017-0.127-0.026c-1.846-0.419-3.852-0.783-5.949-1.117
	c-0.393-0.062-0.774-0.128-1.176-0.188c-2.107-0.312-4.339-0.58-6.702-0.805c-0.463-0.044-0.944-0.082-1.417-0.122
	c-2.504-0.215-5.103-0.396-7.893-0.509c-10.395,1.333-20.516,3.167-30.406,5.344c10.023-17.223,15.417-37.109,14.986-57.755
	c-1.254-60.175-3.995-150.972-9.645-202.212c-2.645-23.992-24.408-29.804-55.977-24.67c11.184-18.341,10.481-38.342-41.026-42.106
	c-2.52,0.24-4.992,0.572-7.486,0.865c-12.589,1.481-24.832,3.609-36.69,6.296c-0.006,0.001-0.01,0.003-0.015,0.004
	c-24.112,5.464-46.665,13.115-67.305,21.947c34.541-42.185,72.539-182.919,68.581-240.214
	c-2.857-41.351-74.354-78.281-142.502-99.313c5.352-3.291,10.526-6.488,15.428-9.533c27.634-17.164,36.232-57.074,9.52-61.983
	c-7.974-1.466-17.842-5.018-28.961-8.661c0.004,0.001,0.007,0.002,0.01,0.003c12.279-13.419,17.668-25.952,13.8-35.614
	c-5.02-12.541-24.636-17.843-52.199-16.272c2.412-1.547,4.731-2.994,7.191-4.591c0.488-0.55,0.907-1.082,1.351-1.621
	c-0.783,0.997-1.351,1.621-1.351,1.621s13.683-11.108,23.938-24.731c-0.001,0.007-0.001,0.014-0.004,0.021
	c0.103-0.134,0.199-0.271,0.299-0.406c0.246-0.331,0.488-0.662,0.73-0.995c0.613-0.846,1.219-1.698,1.798-2.558
	c0.163-0.243,0.317-0.488,0.478-0.732c0.493-0.75,0.968-1.503,1.429-2.261c0.165-0.272,0.333-0.541,0.494-0.813
	c0.53-0.898,1.027-1.8,1.499-2.703c0.148-0.284,0.29-0.567,0.433-0.851c0.469-0.934,0.913-1.87,1.309-2.804
	c0.072-0.173,0.134-0.345,0.205-0.519c0.347-0.851,0.656-1.701,0.935-2.547c0.072-0.222,0.152-0.444,0.22-0.667
	c0.286-0.934,0.518-1.861,0.707-2.784c0.048-0.236,0.09-0.469,0.131-0.704c0.168-0.946,0.297-1.885,0.351-2.812
	c0.007-0.113,0-0.222,0.005-0.334c0.035-0.87,0.009-1.728-0.068-2.576c-0.016-0.18-0.024-0.362-0.046-0.542
	c-0.107-0.892-0.287-1.766-0.534-2.628c-0.053-0.188-0.115-0.375-0.176-0.562c-0.285-0.879-0.625-1.744-1.069-2.584
	c-0.034-0.063-0.078-0.123-0.113-0.186c-0.439-0.802-0.969-1.579-1.565-2.339c-0.115-0.146-0.222-0.296-0.343-0.441
	c-0.642-0.769-1.378-1.513-2.198-2.232c-0.166-0.146-0.346-0.289-0.52-0.433c-0.885-0.731-1.841-1.442-2.93-2.113
	c-0.05-0.03-0.108-0.058-0.158-0.089c-1.067-0.648-2.258-1.259-3.528-1.844c-0.238-0.11-0.465-0.222-0.71-0.33
	c-1.313-0.574-2.735-1.114-4.263-1.62c-0.3-0.099-0.615-0.193-0.923-0.289c-1.627-0.508-3.337-0.991-5.21-1.418
	c-0.04-0.009-0.086-0.017-0.127-0.026c-1.846-0.418-3.852-0.783-5.949-1.117c-0.392-0.062-0.775-0.128-1.176-0.188
	c-2.107-0.313-4.339-0.581-6.7-0.805c-0.464-0.044-0.945-0.081-1.418-0.121c-2.504-0.215-5.101-0.396-7.893-0.509
	c-2.512,0.322-4.971,0.734-7.453,1.108v0.001c-22.382,3.375-43.584,8.819-63.436,15.636c0.001-0.001,0.002-0.002,0.005-0.002
	c13.09-9.59,23.215-20.011,30.265-29.951c22.75-32.071-38.897-202.058-80.929-252.252c-19.189-22.916-65.926-22.97-115.805-12.603
	c-39.898-94.068-96.665-224.202-100.681-212.799c-6.234,17.702,15.428,76.365,15.428,76.365l47.286,146.072
	c0.001-0.001,0.001-0.001,0.002-0.001c-46.82,13.936-91.009,34.302-112.428,50.936c-50.023,38.845,27.494,142.076,60.96,202.993
	c33.466,60.916,113.808,68.016,124.996,68.307c23.141,0.602,43.968-1.867,62.599-6.323c0.004-0.003,0.009-0.005,0.013-0.008
	c-66.275,37.161-105.804,81.353-105.804,81.353l13.722,33.037c0,0,7.316,9.832,34.804,7.901
	c-9.369,11.633-13.142,22.39-9.729,30.915c5.1,12.735,25.256,17.996,53.491,16.185c0.009-0.011,0.019-0.023,0.027-0.033
	c-10.332,12.832-19.007,25.04-25.77,35.325c-10.933,16.625-2.305,39.123,16.942,44.172c13.235,3.473,29.037,5.429,45.185,2.451
	c0.809-0.149,1.686-0.35,2.604-0.585c-4.382,33.306-6.146,68.2-9.46,94.411c-8.721,68.954,52.115,121.911,60.997,128.721
	c56.279,43.155,112.095,51.213,150.536,45.078c-64.912,34.547-104.128,75.635-104.128,75.635l12.639,33.466
	c0.001,0.002,4.483,6.436,20.325,8.497c0.016-0.01,0.034-0.022,0.05-0.031c-4.862,3.105-9.542,6.129-13.823,8.962
	c-90.192,59.695,115.257,210.985,115.257,210.985c11.357,13.598,26.022,20.379,42.378,22.45c0.009-0.006,0.017-0.012,0.024-0.018
	c-32.458,24.729-50.716,45.135-50.716,45.135l13.721,33.037c0,0,7.316,9.832,34.803,7.901c-9.371,11.632-13.142,22.39-9.729,30.915
	c5.098,12.735,25.256,17.996,53.491,16.185c-10.32,12.819-18.986,25.016-25.743,35.292c-10.933,16.625-2.306,39.122,16.94,44.172
	c10.615,2.785,22.89,4.546,35.66,3.618c5.192,38.618,43.232,91.161,62.872,126.287c27.402,49.008,92.349,54.259,101.389,54.426
	c15.328,0.285,29.367-1.114,42.23-3.648l-8.309-19.232l9.14,21.155l78.336,189.562c0,0-55.732,167.066-52.765,222.887
	c2.967,55.822,231.087-4.743,257.234-65.133C1492.035,2216.012,1310.434,2100.947,1310.434,2100.947z M1424.662,2274.797
	c-31.048,24.202-50.013-2.313-111.876,39.258c-61.863,41.572-67.052,15.01-67.052,15.01l31.655-147.554
	c5.667-26.419,36.219-38.767,58.648-23.701c38.622,25.942,88.039,59.063,94.114,62.791
	C1440.287,2226.819,1455.71,2250.595,1424.662,2274.797z"/>
<g>
	<g>
		<path style="fill:#C5AEA6;" d="M470.927,339.061c12.602-3.751,25.375-7.021,37.967-9.638
			c-39.898-94.068-96.665-224.202-100.681-212.799c-6.234,17.702,15.428,76.365,15.428,76.365L470.927,339.061z"/>
		<path style="fill:#97322E;" d="M607.055,654.972c20.363-11.418,43.256-22.141,68.308-30.743
			c13.09-9.59,23.215-20.011,30.265-29.951c22.75-32.071-38.897-202.058-80.929-252.252c-42.031-50.194-216.176,9.125-266.198,47.97
			c-50.023,38.845,27.494,142.076,60.96,202.993c33.466,60.916,113.808,68.016,124.996,68.307
			C567.597,661.898,588.425,659.428,607.055,654.972z"/>
		<path style="fill:#978681;" d="M494.886,332.556c4.687-1.139,9.355-2.166,14.008-3.132
			c-39.898-94.068-96.665-224.202-100.681-212.799c-6.234,17.702,46.433,115.034,46.433,115.034L494.886,332.556z"/>
	</g>
	<g>
		<path style="fill:#882C28;" d="M607.055,654.972c20.363-11.418,43.256-22.141,68.308-30.743
			c13.09-9.59,23.215-20.011,30.265-29.951c22.75-32.071-38.897-202.058-80.929-252.252c-15.722-18.776-49.933-22.226-89.218-17.157
			c2.961,17.945,6.175,32.299,9.25,35.972c42.216,50.4,85.791,60.307,80.802,95.278c-4.989,34.971,22.314,58.627,36.871,84.974
			c14.557,26.347-33.1,50.94-47.297,72.276c-14.198,21.336-55.249-7.502-82.892-28.163c-19.931-14.895-63.346,19.512-86.03,39.879
			c37.903,31.523,89.473,35.982,98.271,36.211C567.597,661.898,588.425,659.428,607.055,654.972z"/>
		<path style="fill:#A24D41;" d="M405.686,535.263c0,0-64.988-89.274-38.813-124.287c26.175-35.013,122.296-66.415,122.296-66.415
			s17.701,66.998,50.049,82.766c32.349,15.768,34.317,92.261,16.029,78.645c-18.288-13.615-88.415-44.447-84.392-16.324
			C474.878,517.771,405.686,535.263,405.686,535.263z"/>
		<path style="fill:#882C28;" d="M532.771,534.974c4.709,5.245,4.274,13.314-0.971,18.023c-5.245,4.708-13.314,4.274-18.023-0.971
			c-4.708-5.245-4.274-13.314,0.971-18.023C519.993,529.294,528.062,529.729,532.771,534.974z"/>
		<path style="fill:#882C28;" d="M628.875,559.534c6.404,7.133,5.813,18.107-1.32,24.51c-7.133,6.404-18.107,5.813-24.511-1.32
			c-6.404-7.133-5.812-18.107,1.321-24.51C611.497,551.81,622.47,552.401,628.875,559.534z"/>
		<path style="fill:#882C28;" d="M467.966,544.425c2.372,2.641,2.152,6.705-0.489,9.076c-2.642,2.371-6.705,2.152-9.077-0.489
			c-2.371-2.642-2.152-6.705,0.489-9.077C461.531,541.565,465.595,541.784,467.966,544.425z"/>
		<path style="fill:#882C28;" d="M609.812,488.141c2.372,2.641,2.152,6.704-0.489,9.076c-2.642,2.371-6.705,2.152-9.076-0.489
			c-2.372-2.641-2.153-6.704,0.489-9.076C603.377,485.28,607.441,485.499,609.812,488.141z"/>
		<path style="fill:#882C28;" d="M577.409,543.051c2.371,2.641,2.152,6.705-0.489,9.076c-2.641,2.372-6.705,2.152-9.076-0.489
			c-2.372-2.642-2.152-6.705,0.489-9.077C570.974,540.191,575.037,540.41,577.409,543.051z"/>
		<path style="fill:#B5564A;" d="M409.925,499.018c-10.19-5.359-48.908-74.559-7.156-89.745
			c41.75-15.186,67.312-56.511,74.824-36.886c7.513,19.626,9.463,38.337,0.527,48.257c-8.937,9.921-34.888,21.091-32.112,36.791
			C448.782,473.135,426.319,507.64,409.925,499.018z"/>
		<path style="fill:#6E201B;" d="M607.055,654.972c20.363-11.418,43.256-22.141,68.308-30.743
			c13.09-9.59,23.215-20.011,30.265-29.951c22.75-32.071-38.897-202.058-80.929-252.252c-12.073-14.419-35.071-19.775-62.876-19.201
			c4.419,32.123,40.572,50.57,82.63,93.577c49.304,50.416,3.813,31.264,27.058,70.667c23.246,39.402,24.339,85.648,11.196,82.266
			c-13.144-3.383-23.995,20.554-35.579,51.374c-11.584,30.82-69.665,34.036-110.511,19.427c-27.511-9.839-48.955-2.099-60.036,4.005
			c30.809,14.443,61.296,16.984,67.875,17.154C567.597,661.898,588.425,659.428,607.055,654.972z"/>
	</g>
	<g>
		<g>
			<path style="fill:#A6C259;" d="M501.265,736.318c0,0,98.288-110.022,244.981-128.831c99.255,4.01,12.659,74.193,12.659,74.193
				s22.91-24.209-14.273-31.05c-44.8-8.242-229.646,118.724-229.646,118.724L501.265,736.318z"/>
			<path style="fill:#6EB25F;" d="M758.905,681.68c0,0,13.681-11.093,23.935-24.709c1.652-8.357-2.124-17.985-24.804-22.157
				c-42.117-7.749-188.791,85.452-247.371,124.136l4.321,10.405c0,0,184.847-126.966,229.646-118.724
				C781.815,657.471,758.905,681.68,758.905,681.68z"/>
			<path style="fill:#C1D28C;" d="M549.79,777.255c17.925-22.254,56.347-47.709,104.197-66.865
				c36.064-14.438,70.711-22.579,97.727-24.119c2.412-1.547,4.731-2.994,7.191-4.591c0.553-0.626,1.021-1.226,1.533-1.84
				c4.445-5.766,15.172-23.51-15.806-29.209c-44.799-8.242-229.646,118.724-229.646,118.724S522.302,779.187,549.79,777.255z"/>
			<g>
				<path style="fill:#BDCF85;" d="M596.554,661.089c-9.417,5.613-18.225,11.32-26.387,16.953l8.032,37.878
					c8.633-5.292,17.545-10.667,26.588-16.007L596.554,661.089z"/>
				<path style="fill:#BDCF85;" d="M702.327,616.083c-16.634,4.343-32.437,9.76-47.381,15.835l7.582,35.755
					c16.355-8.495,32.047-15.976,46.141-21.688L702.327,616.083z"/>
				<path style="fill:#BDCF85;" d="M746.246,607.487c-2.51,0.322-4.971,0.734-7.453,1.109l5.61,26.456
					c5.279-0.804,9.878-0.928,13.632-0.237c22.679,4.172,26.456,13.801,24.804,22.157
					C798.38,636.335,806.045,609.903,746.246,607.487z"/>
			</g>
		</g>
		<path style="fill:#C86E84;" d="M593.552,824.356c26.057-32.368,62.993-68.835,108.854-89.321
			c30.966-13.833,62.564-5.117,87.707,3.122c12.279-13.419,17.668-25.952,13.8-35.614c-9.94-24.834-77.065-21.321-149.926,7.847
			c-72.861,29.168-123.867,72.946-113.926,97.78C545.16,820.905,565.317,826.166,593.552,824.356z"/>
		<path style="fill:#976685;" d="M594.477,823.205c26.004-32.078,62.613-67.927,107.928-88.17
			c26.085-11.653,52.601-7.286,75.351-0.7c8.122-10.608,11.347-20.124,8.036-27.168c-9.394-19.977-66.935-12.697-128.52,16.26
			c-61.585,28.958-103.896,68.627-94.502,88.604C566.531,820.031,578.102,823.59,594.477,823.205z"/>
		<path style="fill:#C86E84;" d="M604.668,811.079c25.06-28.64,58.076-58.327,97.737-76.044c21.471-9.591,43.229-8.305,62.951-3.89
			c3.25-5.93,4.168-11.216,2.2-15.404c-7.624-16.214-54.945-10.014-105.698,13.849c-50.749,23.862-85.711,56.352-78.087,72.567
			C586.422,807.792,593.948,810.66,604.668,811.079z"/>
		<path style="fill:#976685;" d="M612.585,802.3c23.953-25.789,54.204-51.354,89.82-67.265c19.044-8.507,38.318-8.453,56.195-5.259
			c-9.477-10.701-46.531-7.131-86.834,9.003c-43.356,17.356-74.007,42.656-68.462,56.507
			C604.613,798.555,607.877,800.861,612.585,802.3z"/>
		<path style="fill:#DA9933;" d="M632.54,905.686c7.146-54.313,21.262-104.396,60.501-105.658
			c23.223-0.746,61.589,6.117,101.076,18.304c5.352-3.291,10.526-6.489,15.428-9.533c27.634-17.164,36.232-57.074,9.52-61.983
			c-26.007-4.78-72.005-31.727-116.658-11.78c-64.024,28.601-110.776,88.392-134.597,124.613
			c-10.933,16.625-2.305,39.123,16.942,44.172c13.235,3.473,29.037,5.429,45.185,2.451
			C630.745,906.122,631.622,905.92,632.54,905.686z"/>
		<path style="fill:#D88132;" d="M693.04,800.028c21.757-0.699,56.802,5.261,93.61,16.038c1.919-1.187,3.811-2.359,5.652-3.502
			c24-14.908,24.694-37.47,1.492-41.731c-22.587-4.148-54.132-3.44-92.909,13.882c-57.203,25.554-99.329,62.511-119.925,82.941
			c-8.844,8.771-8.375,18.636,1.169,22.496c12.634,5.11,31.666,10.367,51.536,7.433C641.159,846.492,655.762,801.226,693.04,800.028
			z"/>
	</g>
	<g>
		<path style="fill:#97322E;" d="M834.613,1173.896c10.493-5.584,21.643-10.996,33.423-16.037
			c34.541-42.185,72.539-182.919,68.581-240.214c-4.512-65.312-180.275-119.652-243.577-117.617
			c-63.301,2.035-61.242,131.115-69.961,200.069c-8.721,68.954,52.115,121.911,60.997,128.721
			C740.355,1171.974,796.173,1180.031,834.613,1173.896z"/>
		<path style="fill:#882C28;" d="M834.613,1173.896c10.493-5.584,21.643-10.996,33.423-16.037
			c34.541-42.185,72.539-182.919,68.581-240.214c-1.687-24.432-27.343-47.327-62.106-66.312
			c-8.149,16.26-13.985,29.763-13.653,34.542c4.54,65.587,33.975,99.209,9.388,124.574c-24.586,25.365-16.397,60.55-20.1,90.421
			c-3.705,29.872-56.716,21.767-80.741,30.687c-24.026,8.92-40.294-38.536-50.522-71.499c-7.372-23.763-62.72-21.437-93.043-18.288
			c12.146,47.78,51.251,81.691,58.237,87.048C740.355,1171.974,796.173,1180.031,834.613,1173.896z"/>
		<path style="fill:#A24D41;" d="M645.855,945.295c0,0-0.122-110.424,41.632-123.372c41.753-12.948,137.979,18.128,137.979,18.128
			s-25.049,64.612-8.141,96.379c16.908,31.767-26.449,94.816-33.245,73.053c-6.796-21.764-45.42-87.92-58.69-62.801
			C712.119,971.801,645.855,945.295,645.855,945.295z"/>
		<path style="fill:#882C28;" d="M748.852,1019.741c0.728,7.011-4.365,13.284-11.376,14.012
			c-7.011,0.728-13.285-4.365-14.013-11.376c-0.728-7.011,4.365-13.285,11.377-14.013
			C741.85,1007.636,748.124,1012.73,748.852,1019.741z"/>
		<path style="fill:#882C28;" d="M810.991,1104.383c0.99,9.535-5.937,18.067-15.471,19.056c-9.535,0.99-18.067-5.937-19.056-15.472
			c-0.99-9.535,5.937-18.067,15.471-19.056C801.47,1087.922,810.002,1094.849,810.991,1104.383z"/>
		<path style="fill:#882C28;" d="M690.863,989.306c0.366,3.53-2.198,6.69-5.729,7.057c-3.53,0.366-6.69-2.198-7.057-5.729
			c-0.366-3.531,2.199-6.69,5.729-7.057C687.337,983.21,690.496,985.775,690.863,989.306z"/>
		<path style="fill:#882C28;" d="M838.709,1027.12c0.367,3.53-2.198,6.69-5.729,7.057c-3.531,0.366-6.69-2.198-7.057-5.729
			c-0.367-3.53,2.198-6.69,5.729-7.057C835.183,1021.024,838.342,1023.589,838.709,1027.12z"/>
		<path style="fill:#882C28;" d="M780.223,1052.507c0.366,3.531-2.199,6.69-5.729,7.057c-3.531,0.367-6.69-2.198-7.057-5.729
			c-0.366-3.531,2.198-6.69,5.729-7.057C776.696,1046.411,779.856,1048.976,780.223,1052.507z"/>
		<path style="fill:#B5564A;" d="M670.584,918.459c-5.096-10.324,4.241-89.067,46.947-76.82
			c42.705,12.247,87.672-6.17,82.218,14.125c-5.454,20.294-14.872,36.58-27.932,39.355c-13.061,2.775-40.622-3.437-47.603,10.897
			C717.234,920.351,678.782,935.069,670.584,918.459z"/>
		<path style="fill:#6E201B;" d="M834.613,1173.896c10.493-5.584,21.643-10.996,33.423-16.037
			c34.541-42.185,72.539-182.919,68.581-240.214c-1.297-18.762-16.756-36.61-39.592-52.485
			c-15.302,28.589,3.109,64.758,11.868,124.272c10.268,69.766-15.288,27.537-19.633,73.079
			c-4.345,45.542-30.638,83.602-39.284,73.142c-8.648-10.461-31.494,2.53-58.977,20.66c-27.484,18.13-76.367-13.398-100.832-49.222
			c-16.478-24.128-38.378-30.467-50.93-32.038c16.441,29.791,39.616,49.761,44.839,53.766
			C740.355,1171.974,796.173,1180.031,834.613,1173.896z"/>
	</g>
	<g>
		<path style="fill:#A6C259;" d="M976.514,1171.815c6.919,1.507,11.711,3.555,14.929,5.889c10.379-3.088,20.111-5.386,29.097-6.849
			c11.185-18.341,10.5-38.343-41.008-42.108c-147.228,14.021-249.047,120.784-249.047,120.784l12.639,33.466
			C743.123,1282.997,932.006,1162.118,976.514,1171.815z"/>
		<path style="fill:#6EB25F;" d="M976.514,1171.815c6.919,1.507,11.711,3.555,14.93,5.889c8.046-2.394,15.75-4.366,22.989-5.805
			c-1.698-6.088-8.07-11.983-24.007-15.455c-41.843-9.116-191.476,79.258-251.284,116.014l3.981,10.539
			C743.123,1282.997,932.006,1162.119,976.514,1171.815z"/>
		<path style="fill:#C1D28C;" d="M763.448,1291.494c58.728-37.509,157.021-92.654,227.921-113.767
			c-3.219-2.335-7.927-4.402-14.855-5.912c-44.508-9.696-233.39,111.182-233.39,111.182S747.605,1289.432,763.448,1291.494z"/>
		<g>
			<path style="fill:#BDCF85;" d="M828.173,1177.446c-9.595,5.303-18.584,10.721-26.925,16.084l6.794,38.119
				c8.801-5.007,17.883-10.09,27.095-15.132L828.173,1177.446z"/>
			<path style="fill:#BDCF85;" d="M935.356,1135.908c-16.767,3.798-32.737,8.698-47.872,14.284l6.414,35.983
				c16.623-7.958,32.55-14.924,46.822-20.174L935.356,1135.908z"/>
			<path style="fill:#BDCF85;" d="M990.427,1156.443c15.937,3.472,22.309,9.367,24.007,15.455c2.104-0.418,4.1-0.716,6.125-1.046
				c11.184-18.341,10.481-38.342-41.026-42.106c-2.52,0.24-4.992,0.572-7.486,0.865l4.747,26.624
				C982.096,1155.605,986.696,1155.63,990.427,1156.443z"/>
		</g>
	</g>
	<g>
		<path style="fill:#97322E;" d="M907.31,1533.859c37.589-28.641,94.274-63.047,163.884-78.37
			c10.023-17.223,15.417-37.109,14.986-57.755c-1.254-60.175-3.995-150.972-9.645-202.212
			c-8.969-81.331-236.669,45.207-326.86,104.902c-90.192,59.695,115.257,210.985,115.257,210.985
			C876.29,1525.007,890.955,1531.789,907.31,1533.859z"/>
		<path style="fill:#882C28;" d="M907.31,1533.859c37.589-28.641,94.274-63.047,163.884-78.37
			c10.021-17.223,15.417-37.109,14.986-57.755c-1.254-60.175-3.995-150.973-9.645-202.212c-0.698-6.322-2.719-11.384-5.893-15.323
			c-101.037,54.597-89.049,144.572-56.255,203.873c32.902,59.493-51.194,88.484-82.071,48.184
			c-30.877-40.298-29.39-25.052-51.942,5.464c-22.552,30.516-72.744,4.921-97.157-68.322c-14.184-42.557-33.131-21.63-47.107,5.701
			c31.008,64.272,128.822,136.309,128.822,136.309C876.291,1525.006,890.955,1531.788,907.31,1533.859z"/>
		<g>
			<path style="fill:#6E201B;" d="M1058.022,1452.616c-3.142-2.28-36.962,13.201-59.825,27.057
				c22.269-9.901,46.708-18.397,72.997-24.184c10.021-17.223,15.417-37.109,14.986-57.755c-1.253-60.083-3.988-150.689-9.62-201.97
				c-21.753,13.954-1.108,97.093-18.132,116.257C1038.821,1334.091,1062.759,1456.053,1058.022,1452.616z"/>
			<path style="fill:#6E201B;" d="M907.31,1533.859c14.627-11.145,32.109-23.158,52.156-34.594
				c-18.582-4.091-46.697-18.283-59.474-42.047c-19.661-36.57-66.144,44.256-77.117,3.522l-86.765-85.64
				c31.008,64.272,128.822,136.309,128.822,136.309C876.291,1525.006,890.955,1531.788,907.31,1533.859z"/>
		</g>
		<path style="fill:#882C28;" d="M899.736,1363.673c0.799,7.692-4.79,14.575-12.482,15.374c-7.692,0.799-14.575-4.789-15.374-12.482
			c-0.799-7.692,4.789-14.576,12.482-15.374C892.055,1350.392,898.938,1355.981,899.736,1363.673z"/>
		<path style="fill:#882C28;" d="M1007.893,1209.449c0.798,7.692-4.79,14.576-12.482,15.374c-7.692,0.799-14.575-4.79-15.374-12.482
			c-0.798-7.692,4.79-14.575,12.482-15.373C1000.211,1196.168,1007.095,1201.756,1007.893,1209.449z"/>
		<path style="fill:#882C28;" d="M809.595,1321.854c0.798,7.692-4.79,14.576-12.482,15.374c-7.692,0.799-14.575-4.79-15.374-12.482
			c-0.798-7.692,4.79-14.575,12.482-15.374C801.914,1308.573,808.797,1314.161,809.595,1321.854z"/>
		<path style="fill:#882C28;" d="M864.099,1401.185c0.799,7.692-4.789,14.575-12.482,15.374c-7.692,0.798-14.576-4.79-15.374-12.482
			c-0.799-7.692,4.79-14.576,12.482-15.374C856.418,1387.904,863.301,1393.492,864.099,1401.185z"/>
		<path style="fill:#882C28;" d="M984.538,1390.51c1.086,10.461-6.514,19.822-16.975,20.908
			c-10.461,1.086-19.823-6.514-20.908-16.976c-1.086-10.461,6.514-19.822,16.976-20.908
			C974.091,1372.448,983.452,1380.048,984.538,1390.51z"/>
		<path style="fill:#882C28;" d="M840.593,1360.455c0.402,3.874-2.412,7.34-6.286,7.743c-3.874,0.402-7.34-2.413-7.743-6.286
			c-0.402-3.874,2.412-7.34,6.286-7.742C836.725,1353.767,840.191,1356.581,840.593,1360.455z"/>
		<path style="fill:#882C28;" d="M977.887,1270.959c0.402,3.874-2.412,7.34-6.286,7.742c-3.874,0.402-7.341-2.412-7.742-6.286
			c-0.402-3.874,2.412-7.341,6.286-7.743C974.018,1264.271,977.485,1267.085,977.887,1270.959z"/>
		<path style="fill:#882C28;" d="M950.778,1333.591c0.402,3.874-2.412,7.341-6.286,7.742c-3.874,0.402-7.34-2.412-7.742-6.286
			c-0.402-3.874,2.412-7.34,6.286-7.742C946.91,1326.903,950.376,1329.717,950.778,1333.591z"/>
		<path style="fill:#A24D41;" d="M817.803,1281.417c0,0,9.435,38.16,45.504,33.331c36.07-4.828,108.703-121.009,108.703-121.009
			L817.803,1281.417z"/>
	</g>
	<g>
		<g>
			<path style="fill:#A6C259;" d="M856.618,1578.976c0,0,98.289-110.023,244.982-128.831c99.254,4.01,12.659,74.194,12.659,74.194
				s22.91-24.21-14.273-31.051c-44.8-8.242-229.647,118.725-229.647,118.725L856.618,1578.976z"/>
			<path style="fill:#6EB25F;" d="M1114.259,1524.339c0,0,13.68-11.094,23.934-24.71c1.653-8.357-2.124-17.985-24.804-22.157
				c-42.117-7.748-188.791,85.452-247.371,124.137l4.32,10.404c0,0,184.847-126.966,229.647-118.724
				C1137.168,1500.13,1114.259,1524.339,1114.259,1524.339z"/>
			<path style="fill:#C1D28C;" d="M905.143,1619.914c17.925-22.254,56.346-47.709,104.195-66.864
				c36.065-14.438,70.713-22.579,97.728-24.119c2.413-1.547,4.73-2.994,7.193-4.591c0.553-0.626,1.021-1.226,1.533-1.84
				c4.445-5.767,15.172-23.511-15.806-29.21c-44.8-8.242-229.647,118.724-229.647,118.724S877.656,1621.845,905.143,1619.914z"/>
			<g>
				<path style="fill:#BDCF85;" d="M951.907,1503.748c-9.417,5.613-18.225,11.32-26.388,16.953l8.033,37.878
					c8.633-5.292,17.544-10.668,26.588-16.007L951.907,1503.748z"/>
				<path style="fill:#BDCF85;" d="M1057.68,1458.742c-16.634,4.342-32.437,9.76-47.382,15.835l7.583,35.755
					c16.354-8.495,32.046-15.976,46.141-21.689L1057.68,1458.742z"/>
				<path style="fill:#BDCF85;" d="M1101.6,1450.145c-2.51,0.322-4.971,0.735-7.453,1.109l5.61,26.456
					c5.279-0.803,9.878-0.928,13.632-0.237c22.68,4.172,26.456,13.801,24.804,22.157
					C1153.733,1478.994,1161.398,1452.562,1101.6,1450.145z"/>
			</g>
		</g>
		<path style="fill:#C86E84;" d="M948.905,1667.014c26.057-32.367,62.994-68.834,108.854-89.321
			c30.966-13.833,62.564-5.116,87.707,3.123c12.278-13.419,17.668-25.952,13.8-35.614c-9.942-24.834-77.067-21.321-149.928,7.848
			c-72.859,29.168-123.866,72.945-113.925,97.779C900.512,1663.564,920.67,1668.825,948.905,1667.014z"/>
		<path style="fill:#976685;" d="M949.831,1665.863c26.003-32.077,62.612-67.926,107.928-88.17
			c26.086-11.652,52.601-7.285,75.35-0.699c8.124-10.608,11.348-20.125,8.037-27.169c-9.394-19.977-66.935-12.697-128.52,16.26
			c-61.586,28.957-103.896,68.627-94.504,88.604C921.885,1662.69,933.455,1666.248,949.831,1665.863z"/>
		<path style="fill:#C86E84;" d="M960.022,1653.738c25.06-28.64,58.074-58.327,97.737-76.045c21.47-9.591,43.229-8.305,62.951-3.89
			c3.249-5.93,4.168-11.216,2.2-15.404c-7.624-16.214-54.947-10.014-105.698,13.848c-50.749,23.863-85.711,56.352-78.087,72.567
			C941.776,1650.451,949.3,1653.319,960.022,1653.738z"/>
		<path style="fill:#976685;" d="M967.215,1645.718c24.063-26.046,54.576-51.957,90.543-68.025
			c17.408-7.776,35.005-8.384,51.559-5.999c-10.561-9.749-46.725-5.994-86.032,9.742c-43.356,17.356-74.007,42.656-68.462,56.508
			C956.401,1641.886,960.815,1644.43,967.215,1645.718z"/>
		<g>
			<path style="fill:#DA9933;" d="M988.163,1712.765c29.253-23.069,111.569-55.266,167.408-55.534
				c3.189-1.969,6.315-3.905,9.325-5.775c27.635-17.164,36.233-57.073,9.521-61.984c-26.005-4.78-72.004-31.727-116.657-11.78
				c-64.024,28.601-110.777,88.393-134.597,124.613c-10.933,16.625-2.306,39.122,16.94,44.172
				c10.615,2.785,22.89,4.546,35.661,3.618C973.712,1734.832,976.781,1721.74,988.163,1712.765z"/>
			<path style="fill:#D88132;" d="M988.163,1712.765c27.226-21.469,100.414-50.843,155.445-55.033
				c1.366-0.846,2.724-1.687,4.048-2.51c24-14.908,24.694-37.47,1.492-41.731c-22.589-4.149-54.132-3.44-92.908,13.882
				c-57.204,25.554-99.33,62.511-119.927,82.94c-8.842,8.771-8.373,18.636,1.17,22.496c9.659,3.907,23.065,7.917,37.717,8.295
				C975.329,1729.704,979.091,1719.92,988.163,1712.765z"/>
		</g>
	</g>
	<g>
		<path style="fill:#97322E;" d="M1173.945,1907.929c0,0,30.611-44.218,33.582-19.712l12.902,26.672
			c23.287-10.831,39.883-25.575,49.391-39.191c18.186-26.046-32.643-162.996-66.9-203.291
			c-34.257-40.295-174.58,8.676-214.757,40.359c-40.175,31.682,23.069,114.608,50.472,163.617
			c27.402,49.008,92.349,54.259,101.389,54.426c15.328,0.285,29.367-1.114,42.23-3.648L1173.945,1907.929z"/>
		<g>
			<path style="fill:#882C28;" d="M1204.283,1764.57c-3.818,28.281,18.38,47.227,30.297,68.423
				c9.763,17.36-14.179,34.018-29.401,48.996c1.146,1.128,1.97,3.122,2.348,6.229l12.902,26.672
				c23.287-10.831,39.883-25.576,49.391-39.192c18.186-26.046-32.643-162.996-66.9-203.291
				c-12.815-15.074-40.473-17.654-72.178-13.322c2.5,14.478,5.184,26.056,7.689,29.004
				C1172.84,1728.549,1208.101,1736.289,1204.283,1764.57z"/>
			<path style="fill:#882C28;" d="M1173.945,1907.929c0,0,3.32-4.788,7.87-10.336c-15.126-1.72-36.318-16.537-52.14-28.179
				c-16.189-11.913-51.055,16.144-69.257,32.735c30.81,25.237,72.496,28.528,79.606,28.659c15.328,0.285,29.367-1.114,42.23-3.648
				L1173.945,1907.929z"/>
		</g>
		<path style="fill:#A24D41;" d="M1027.159,1829.833c0,0-53.039-71.727-32.105-100.17c20.934-28.443,98.394-54.39,98.394-54.39
			s14.704,54.017,40.931,66.559c26.227,12.543,28.279,74.325,13.424,63.436c-14.856-10.889-71.694-35.373-68.274-12.678
			C1082.949,1815.284,1027.159,1829.833,1027.159,1829.833z"/>
		<path style="fill:#882C28;" d="M1129.821,1828.832c3.835,4.208,3.533,10.73-0.676,14.565c-4.209,3.836-10.729,3.533-14.565-0.675
			c-3.835-4.209-3.533-10.73,0.676-14.565C1119.464,1824.321,1125.985,1824.623,1129.821,1828.832z"/>
		<path style="fill:#882C28;" d="M1210.812,1854.056c5.216,5.724,4.805,14.592-0.919,19.808c-5.724,5.216-14.592,4.805-19.808-0.919
			c-5.216-5.724-4.805-14.592,0.918-19.808C1196.727,1847.92,1205.596,1848.332,1210.812,1854.056z"/>
		<path style="fill:#882C28;" d="M1077.526,1836.858c1.931,2.12,1.779,5.404-0.341,7.336c-2.119,1.931-5.403,1.779-7.335-0.34
			c-1.932-2.12-1.779-5.404,0.34-7.335C1072.31,1834.587,1075.594,1834.739,1077.526,1836.858z"/>
		<path style="fill:#882C28;" d="M1191.775,1790.533c1.931,2.12,1.779,5.404-0.341,7.336c-2.119,1.931-5.403,1.779-7.335-0.34
			c-1.932-2.12-1.779-5.404,0.34-7.335C1186.559,1788.262,1189.843,1788.414,1191.775,1790.533z"/>
		<path style="fill:#882C28;" d="M1165.929,1835.088c1.931,2.119,1.779,5.403-0.34,7.335c-2.12,1.932-5.404,1.779-7.335-0.34
			c-1.931-2.12-1.779-5.403,0.34-7.335C1160.714,1832.816,1163.998,1832.968,1165.929,1835.088z"/>
		<path style="fill:#B5564A;" d="M1030.364,1800.526c-8.264-4.268-39.959-59.936-6.323-72.456
			c33.637-12.52,54.036-46.058,60.224-30.249c6.188,15.809,7.877,30.913,0.717,38.981c-7.16,8.068-28.057,17.248-25.72,29.914
			S1043.66,1807.393,1030.364,1800.526z"/>
		<g>
			<path style="fill:#6E201B;" d="M1219.327,1732.371c40.134,40.43,3.269,25.233,22.285,56.924
				c19.016,31.691,20.178,69.044,9.54,66.39c-10.638-2.654-19.26,16.749-28.431,41.717c-1.32,3.589-3.491,6.672-6.216,9.374
				l3.924,8.113c23.287-10.831,39.883-25.576,49.391-39.192c18.186-26.046-32.643-162.996-66.9-203.291
				c-9.841-11.576-28.451-15.764-50.91-15.132C1155.774,1683.199,1185.089,1697.882,1219.327,1732.371z"/>
			<path style="fill:#6E201B;" d="M1179.173,1920.03c-15.071,0.891-31.575-1.366-45.61-6.268c-22.284-7.783-39.561-1.4-48.474,3.598
				c24.974,11.482,49.619,13.35,54.935,13.448c15.328,0.285,29.367-1.114,42.23-3.648L1179.173,1920.03z"/>
		</g>
	</g>
	<path style="fill:#C5AEA6;" d="M1310.433,2100.947l-102.907-212.729c-2.971-24.507-33.582,19.711-33.582,19.711l9.14,21.155
		l78.336,189.562c0,0-55.732,167.066-52.765,222.887c2.967,55.821,231.087-4.743,257.233-65.133
		C1492.035,2216.012,1310.433,2100.947,1310.433,2100.947z M1424.662,2274.797c-31.047,24.202-50.013-2.313-111.876,39.258
		c-61.863,41.572-67.052,15.01-67.052,15.01l31.653-147.554c5.668-26.419,36.22-38.767,58.649-23.701
		c38.623,25.942,88.039,59.063,94.114,62.791C1440.287,2226.819,1455.709,2250.596,1424.662,2274.797z"/>
	<g>
		<path style="fill:#978681;" d="M1343.778,2296.926c29.713-8.946,45.756-0.934,66.596-13.898
			C1391.826,2290.132,1374.63,2283.958,1343.778,2296.926z"/>
		<path style="fill:#978681;" d="M1269.532,2183.762l-34.542,146.905c0,0,2.391,13.532,26.46,6.69
			c-13.915,0.809-15.716-8.293-15.716-8.293l31.654-147.555c2.596-12.102,10.439-21.198,20.306-26.113
			C1284.443,2158.646,1273.036,2168.859,1269.532,2183.762z"/>
		<path style="fill:#978681;" d="M1310.433,2100.947l-102.907-212.729c-2.759-22.754-29.328,13.715-33.118,19.052
			c8.305-2.396,31.576-7.245,33.619,12.9l96.125,183.693c0,0,179.309,118.605,151.984,178.47
			c-8.863,19.418-38.982,38.432-75.686,53.362c41.227-16.283,76.133-37.797,85.44-59.293
			C1492.035,2216.012,1310.433,2100.947,1310.433,2100.947z"/>
	</g>
</g>
</svg>
